<svg width="32" height="32" viewBox="0 0 32 32" fill="none" xmlns="http://www.w3.org/2000/svg">
<g clip-path="url(#clip0_24_227)">
<path d="M16.54 27.72C14.044 27.72 12.124 27.288 10.78 26.424C9.436 25.536 8.764 24.24 8.764 22.536C8.764 21.672 9.052 20.964 9.628 20.412C10.228 19.836 10.996 19.548 11.932 19.548C12.556 19.572 12.988 19.728 13.228 20.016C13.492 20.304 13.624 20.52 13.624 20.664C13.624 20.712 13.516 20.796 13.3 20.916C13.084 21.012 12.868 21.204 12.652 21.492C12.436 21.756 12.328 22.176 12.328 22.752C12.328 23.832 12.664 24.696 13.336 25.344C14.008 25.968 15.076 26.28 16.54 26.28C17.572 26.28 18.448 26.088 19.168 25.704C19.912 25.296 20.476 24.78 20.86 24.156C21.244 23.508 21.436 22.848 21.436 22.176C21.436 21.168 21.148 20.34 20.572 19.692C19.996 19.044 19.24 18.492 18.304 18.036C17.392 17.556 16.42 17.1 15.388 16.668C14.356 16.236 13.372 15.744 12.436 15.192C11.524 14.64 10.768 13.956 10.168 13.14C9.568 12.3 9.256 11.256 9.232 10.008C9.208 8.496 9.532 7.272 10.204 6.336C10.876 5.376 11.812 4.68 13.012 4.248C14.212 3.792 15.544 3.564 17.008 3.564C18.088 3.564 19.144 3.72 20.176 4.032C21.232 4.344 22.096 4.836 22.768 5.508C23.464 6.156 23.812 7.02 23.812 8.1C23.812 8.964 23.512 9.684 22.912 10.26C22.336 10.812 21.58 11.088 20.644 11.088C20.02 11.04 19.576 10.884 19.312 10.62C19.072 10.332 18.952 10.116 18.952 9.972C18.952 9.9 19.096 9.816 19.384 9.72C19.672 9.6 19.96 9.408 20.248 9.144C20.536 8.856 20.68 8.436 20.68 7.884C20.68 6.972 20.332 6.276 19.636 5.796C18.94 5.292 18.076 5.04 17.044 5.04C15.484 5.04 14.344 5.412 13.624 6.156C12.928 6.876 12.58 7.692 12.58 8.604C12.58 9.492 12.82 10.212 13.3 10.764C13.78 11.316 14.5 11.856 15.46 12.384C16.54 12.96 17.632 13.5 18.736 14.004C19.84 14.484 20.86 15.024 21.796 15.624C22.756 16.224 23.524 16.98 24.1 17.892C24.676 18.78 24.964 19.932 24.964 21.348C24.964 22.572 24.58 23.664 23.812 24.624C23.068 25.584 22.06 26.34 20.788 26.892C19.516 27.444 18.1 27.72 16.54 27.72Z" fill="url(#paint0_linear_24_227)"/>
<path d="M9.5 7L10.0613 8.72746H11.8776L10.4082 9.79508L10.9695 11.5225L9.5 10.4549L8.03054 11.5225L8.59182 9.79508L7.12236 8.72746H8.93871L9.5 7Z" fill="#FEEA83"/>
<path d="M23 20L23.449 21.382H24.9021L23.7265 22.2361L24.1756 23.618L23 22.7639L21.8244 23.618L22.2735 22.2361L21.0979 21.382H22.551L23 20Z" fill="#FEEA83"/>
<path d="M10 22L10.2245 22.691H10.9511L10.3633 23.118L10.5878 23.809L10 23.382L9.41221 23.809L9.63673 23.118L9.04894 22.691H9.77549L10 22Z" fill="#FEEA83"/>
<path d="M21 8L21.2245 8.69098H21.9511L21.3633 9.11803L21.5878 9.80902L21 9.38197L20.4122 9.80902L20.6367 9.11803L20.0489 8.69098H20.7755L21 8Z" fill="#FEEA83"/>
</g>
<defs>
<linearGradient id="paint0_linear_24_227" x1="6.5" y1="16" x2="27" y2="16" gradientUnits="userSpaceOnUse">
<stop stop-color="#8112FF"/>
<stop offset="0.495192" stop-color="#FF4DE4"/>
<stop offset="1" stop-color="#00D5FF"/>
</linearGradient>
<clipPath id="clip0_24_227">
<rect width="32" height="32" fill="white"/>
</clipPath>
</defs>
</svg>
